<svg viewBox="-2000 -1250 4000 2500" xmlns="http://www.w3.org/2000/svg" xmlns:xlink="http://www.w3.org/1999/xlink"><style>*{fill:#333;font:130px consolas,monaco,monospace;}g [d]{fill:none;stroke:#ccc;stroke-width:6}g [d]+*{stroke:#b53;stroke-width:12}g [d]+*+*{stroke:#333;stroke-width:9;marker-start:url(#s);marker-end:url(#e);}#h~*{fill:#b53;font:700 130px comic sans ms,cursive}</style><marker id="s" markerWidth="7" markerHeight="7" viewBox="-8 -4 8 8" orient="auto" refX="-7"><path d="M-8 0 0-4V4"/></marker><marker id="e" markerWidth="7" markerHeight="7" viewBox="0 -4 8 8" orient="auto" refX="7"><path d="M8 0 0-4V4"/></marker><text x="1033" y="39">100%</text><text x="-1319" y="39">100%</text><text x="-130" y="-1046">100%</text><text x="-130" y="1137">100%</text><g id="a"><text x="643" y="-198">50%</text><text x="643" y="302">50%</text></g><g id="b"><text x="-354" y="747">50%</text><text x="146" y="747">50%</text></g><use xlink:href="#a" x="-1507"/><use xlink:href="#b" y="-1403"/><g id="h"><g id="q"><path d="M0 0H825M0 500H1150M0 0V825M500 0V1150"/><path d="M0 0H500V285A215 215 0 0 0 285 500H0z"/><path d="M0 630H500"/><path d="M630 0V500"/><path d="M-500 1020H500"/><path d="M1020-500V500"/></g><use xlink:href="#q" transform="scale(1-1)"/></g><use xlink:href="#h" transform="scale(-1 1)"/><text x="-354" y="-198">1st</text><text x="146" y="-198">2nd</text><text x="-354" y="302">3rd</text><text x="146" y="302">4th</text></svg>